<svg width="32" height="32" viewBox="0 0 32 32" fill="none" xmlns="http://www.w3.org/2000/svg">
<path fill-rule="evenodd" clip-rule="evenodd" d="M27.6923 23.5792C27.5694 25.2369 27.385 27.0175 27.0777 28.7366C27.0162 29.2278 26.463 29.7803 25.9713 29.8417C22.652 30.2101 19.3942 30.4557 16.0749 30.4557C12.8171 30.4557 9.49788 30.2715 6.24009 29.8417C5.74834 29.7803 5.19513 29.2892 5.13367 28.7366C4.70339 26.0351 4.45752 23.2722 4.45752 20.5093C4.45752 17.7464 4.70339 14.9835 5.13367 12.282C5.19513 11.7909 5.74834 11.2997 6.24009 11.1769C8.26852 10.9313 10.2355 10.8085 12.2025 10.6857C12.2025 10.6857 13.8006 10.6243 13.6777 9.08936C13.5548 7.73861 11.219 6.81765 11.219 4.54594C11.219 2.70401 13.063 1.23047 16.0749 1.23047C19.0254 1.23047 20.8694 2.70401 20.8694 4.54594C20.8694 6.87905 18.5951 7.73861 18.4722 9.08936C18.3492 10.5629 19.9474 10.6857 19.9474 10.6857C21.9758 10.7471 24.0043 10.9313 25.9713 11.1769C26.463 11.2383 27.0162 11.7295 27.0777 12.282C27.385 14.1854 27.5694 15.9659 27.6923 17.8692C27.6923 18.4218 27.2621 18.9744 26.7089 18.9744H26.1557C25.6024 18.9744 24.7419 18.5446 24.3731 18.1148C24.3731 18.1148 23.0823 16.7641 21.6685 16.7027C19.3942 16.6413 17.6731 18.606 17.6731 20.7549C17.6731 22.9038 19.3942 24.9299 21.607 24.8685C22.9593 24.8071 24.3116 23.4564 24.3116 23.4564C24.7419 23.088 25.541 22.7196 26.0942 22.7196H26.6474C27.3235 22.7196 27.7538 23.088 27.6923 23.5792V23.5792Z" fill="#3863b3ee"/>
</svg>
